<?xml version="1.0" encoding="utf-8"?>
<!-- Generator: Adobe Illustrator 22.1.0, SVG Export Plug-In . SVG Version: 6.00 Build 0)  -->
<svg version="1.1" id="Capa_2_1_" xmlns="http://www.w3.org/2000/svg" xmlns:xlink="http://www.w3.org/1999/xlink" x="0px" y="0px"
	 viewBox="0 0 564 510.6" style="enable-background:new 0 0 564 510.6;" xml:space="preserve">
<style type="text/css">
	.st0{fill:#DDDBDB;}
</style>
<title>ícono</title>
<g>
	<path class="st0" d="M282.3,68.2c-38-48.3-97.2-73.5-153.8-63.4C47.4,19.3,4.4,100.4,0.3,161.4c-1.2,20.2,1.5,40.5,8.1,59.6h118.2
		c11.6-17.4,27.5-31.4,40.2-47.8c4.8-6.2,13.1-8.6,19.9-4c3,2.9,5.2,6.4,6.6,10.3l0.1,0.4c0,0,0.1,0.1,0.1,0.2
		c0.2,0.4,0.3,0.7,0.4,1.1c0.2,0.5,0.4,1.1,0.6,1.6c25.4,50,54.9,97.8,84.8,145.2c1-4.5,2-9.1,3-13.6L282.3,68.2z"/>
	<path class="st0" d="M282.6,382.7c-4.4-1.2-8-4.1-10-8.2c-0.9-1-1.5-2.1-2-3.3c-1.1-1.8-2.1-3.6-3-5.5c-1.8-4-3.5-8-5.5-12
		c-30.4-47.9-60.6-96.1-87-146.4c-6.6,7.3-13.3,14.5-19.3,22.4c-2.4,4-5,8-7.8,11.7c-2.5,5.2-8.2,8.2-14.2,8.2H20.3
		c0.9,1.8,1.8,3.6,2.7,5.4c64.2,126,187.1,211.9,259.7,255.5L282.6,382.7z"/>
	<path class="st0" d="M401,258c-0.5,0-1,0-1.4-0.1h-1.1c-0.5,0.1-0.9,0.1-1.4,0.1l-0.8-0.2c-4.9,0.5-9.9-1.3-13.3-4.9l-44.2-44.2
		c-14.5,53.2-28.4,106.8-38.5,161c-1.4,7.7-6.9,13.9-15.4,13.3c-0.7-0.1-1.5-0.2-2.2-0.4l0.1,127.8
		c59.5-28.8,199.1-106.5,257.9-252.6L401,258z"/>
	<path class="st0" d="M555.3,108.4c-3.1-8.9-31.8-86.8-111-104.9c-59.4-13.6-123.3,12-162,64.6l0.3,246.1
		c10.5-46.2,22.7-92,35.2-137.8c2.1-7.5,11.2-11.4,18.2-9c2.3,0.8,4.4,2.2,6,4c0.3,0.2,0.5,0.5,0.8,0.7l56.9,56.9
		c0.6,0,1.2,0.1,1.7,0.3c0.7-0.1,1.4-0.1,2-0.1h147.8C562.4,196.2,571.2,154.1,555.3,108.4z"/>
</g>
</svg>
