<svg id="Capa_1" data-name="Capa 1" xmlns="http://www.w3.org/2000/svg" viewBox="0 0 2146.82 851.35"><defs><style>.cls-1{fill:#ffdc00;}</style></defs><title>Logotipo-7548C</title><path class="cls-1" d="M494.78,759.15a3.87,3.87,0,0,1-1.41,3.29,6.33,6.33,0,0,1-3.93,1.08H457q.27,6.53,3.64,10.1t10.3,3.59a28.12,28.12,0,0,0,4.22-.3,34.88,34.88,0,0,0,3.84-.81c1.26-.34,2.52-.72,3.78-1.16l3.93-1.34a3.29,3.29,0,0,1,1.2-.27,3.34,3.34,0,0,1,2.78,1.37,5.21,5.21,0,0,1,1,3.21,5.86,5.86,0,0,1-.36,2.05,9.56,9.56,0,0,1-3.46,4.28,20.16,20.16,0,0,1-5.55,2.69,33.6,33.6,0,0,1-6.66,1.38,63,63,0,0,1-6.7.38,34.75,34.75,0,0,1-11.24-1.78,25.45,25.45,0,0,1-9-5.28,24.27,24.27,0,0,1-6-8.79,31.93,31.93,0,0,1-2.18-12.23,28.17,28.17,0,0,1,2.1-10.89,26.57,26.57,0,0,1,5.84-8.78,27.48,27.48,0,0,1,8.91-5.87,29.08,29.08,0,0,1,11.34-2.16A28.69,28.69,0,0,1,480.32,735a22.9,22.9,0,0,1,8.07,5.71,23.43,23.43,0,0,1,4.77,8.35A32.75,32.75,0,0,1,494.78,759.15Zm-14-3.28a20.2,20.2,0,0,0-1-5.28,12.71,12.71,0,0,0-2.31-4.21,10.31,10.31,0,0,0-3.67-2.77,11.88,11.88,0,0,0-5.05-1,10.51,10.51,0,0,0-4.74,1,11.36,11.36,0,0,0-3.67,2.86,13.37,13.37,0,0,0-2.41,4.2,18.61,18.61,0,0,0-1,5.15Z"/><path class="cls-1" d="M512.08,744.44q0-5.12,1.81-7.86c1.2-1.84,3.27-2.75,6.21-2.75,3.1,0,5.33.91,6.67,2.75s2,4.45,2,7.86a15.68,15.68,0,0,1,2.73-4.71,17.38,17.38,0,0,1,4.21-3.64,20.91,20.91,0,0,1,5.37-2.34,22.39,22.39,0,0,1,6.18-.84,17.64,17.64,0,0,1,6.52,1.24,15.45,15.45,0,0,1,5.58,3.75,18.64,18.64,0,0,1,3.88,6.3,24.5,24.5,0,0,1,1.47,8.87v24.35c0,3.42-.68,6-2,7.87S559.14,788,556,788q-4.39,0-6.21-2.75t-1.8-7.87v-23.6a13.86,13.86,0,0,0-.66-4.5,9,9,0,0,0-1.81-3.18,7.49,7.49,0,0,0-2.69-1.91,8.56,8.56,0,0,0-3.33-.65,11.71,11.71,0,0,0-4.16.73,9.19,9.19,0,0,0-3.41,2.18,10.51,10.51,0,0,0-2.28,3.61,13.77,13.77,0,0,0-.84,5v22.31q0,5.13-2,7.87c-1.35,1.83-3.57,2.75-6.68,2.75q-4.41,0-6.21-2.75c-1.2-1.83-1.81-4.45-1.81-7.87Z"/><path class="cls-1" d="M636.19,759.15a3.87,3.87,0,0,1-1.41,3.29,6.37,6.37,0,0,1-3.93,1.08H598.42q.27,6.53,3.64,10.1t10.3,3.59a27.89,27.89,0,0,0,4.21-.3,34.57,34.57,0,0,0,3.85-.81c1.26-.34,2.52-.72,3.77-1.16l3.93-1.34a3.38,3.38,0,0,1,1.21-.27,3.31,3.31,0,0,1,2.77,1.37,5.15,5.15,0,0,1,1,3.21,5.86,5.86,0,0,1-.36,2.05,9.63,9.63,0,0,1-3.46,4.28,20.16,20.16,0,0,1-5.55,2.69,33.6,33.6,0,0,1-6.66,1.38,63.16,63.16,0,0,1-6.7.38,34.75,34.75,0,0,1-11.24-1.78,25.49,25.49,0,0,1-9-5.28,24.25,24.25,0,0,1-6-8.79A31.93,31.93,0,0,1,582,760.61a28.17,28.17,0,0,1,2.1-10.89,26.42,26.42,0,0,1,5.84-8.78,27.43,27.43,0,0,1,8.9-5.87,29.1,29.1,0,0,1,11.35-2.16A28.73,28.73,0,0,1,621.73,735a22.9,22.9,0,0,1,8.07,5.71,23.43,23.43,0,0,1,4.77,8.35A33.05,33.05,0,0,1,636.19,759.15Zm-14-3.28a19.8,19.8,0,0,0-1-5.28,12.89,12.89,0,0,0-2.31-4.21,10.4,10.4,0,0,0-3.67-2.77,11.92,11.92,0,0,0-5-1,10.51,10.51,0,0,0-4.74,1,11.36,11.36,0,0,0-3.67,2.86,13.37,13.37,0,0,0-2.41,4.2,17.91,17.91,0,0,0-1,5.15Z"/><path class="cls-1" d="M670.25,777.42q0,5.13-2,7.87c-1.35,1.83-3.57,2.75-6.68,2.75q-4.41,0-6.21-2.75t-1.81-7.87V741.86a8.24,8.24,0,0,1,.71-3.51,7,7,0,0,1,1.88-2.47,8.92,8.92,0,0,1,2.7-1.51,9.52,9.52,0,0,1,3.2-.54,7.29,7.29,0,0,1,6.15,2.69c1.38,1.8,2.07,4.47,2.07,8a14.27,14.27,0,0,1,4.3-8.54,12.47,12.47,0,0,1,8.75-3.1,6.92,6.92,0,0,1,2.88.57,6.18,6.18,0,0,1,2.09,1.48,6.07,6.07,0,0,1,1.26,2.1,7.05,7.05,0,0,1,.42,2.37,5.8,5.8,0,0,1-2.33,5.09,12.14,12.14,0,0,1-6.26,1.92,18.69,18.69,0,0,0-4.38.91,10,10,0,0,0-3.51,2.08,9.43,9.43,0,0,0-2.35,3.53,14.12,14.12,0,0,0-.87,5.28Z"/><path class="cls-1" d="M741.93,777.64a17.27,17.27,0,0,1-3.43,4.58,18.68,18.68,0,0,1-4.46,3.1,21.15,21.15,0,0,1-5.18,1.78,28.54,28.54,0,0,1-5.64.56,21.29,21.29,0,0,1-8.8-1.78,19,19,0,0,1-6.83-5.14,23.91,23.91,0,0,1-4.43-8.28,36.55,36.55,0,0,1-1.57-11.2,40.36,40.36,0,0,1,1.47-11.1,27.79,27.79,0,0,1,4.27-9,20.52,20.52,0,0,1,6.88-6,19.37,19.37,0,0,1,9.33-2.21,23,23,0,0,1,10.61,2.37,20.66,20.66,0,0,1,8,7.76v-1.4c0-2.59.68-4.53,2.06-5.85a8,8,0,0,1,5.74-2,8.63,8.63,0,0,1,3.72.72,5.72,5.72,0,0,1,2.41,2.16,10.17,10.17,0,0,1,1.28,3.5,24.89,24.89,0,0,1,.4,4.72V781a39.94,39.94,0,0,1-1.6,11.75,22,22,0,0,1-4.95,8.73,21.47,21.47,0,0,1-8.59,5.42,37.39,37.39,0,0,1-12.47,1.86,79,79,0,0,1-9-.46,35.9,35.9,0,0,1-6.74-1.38,13.74,13.74,0,0,1-4.27-2.26,4.06,4.06,0,0,1-1.44-3.23,7.28,7.28,0,0,1,.32-2.16,5.06,5.06,0,0,1,1-1.8,4.4,4.4,0,0,1,1.73-1.24,6.61,6.61,0,0,1,2.64-.46,27.51,27.51,0,0,1,3.38.21l3.56.46c1.24.16,2.55.32,3.93.46a44.35,44.35,0,0,0,4.48.22,20,20,0,0,0,5.13-.6,8.46,8.46,0,0,0,3.83-2.1,9.65,9.65,0,0,0,2.41-4,20.44,20.44,0,0,0,.84-6.39Zm0-16.76a43.72,43.72,0,0,0-.55-7.17,16.91,16.91,0,0,0-1.86-5.52,9.52,9.52,0,0,0-3.51-3.56,10.94,10.94,0,0,0-5.5-1.26,9.9,9.9,0,0,0-5.37,1.34,9.66,9.66,0,0,0-3.38,3.72A17.49,17.49,0,0,0,720,754a44.22,44.22,0,0,0-.5,6.79q0,8.25,2.83,12.4a9.36,9.36,0,0,0,8.23,4.15,11.59,11.59,0,0,0,4.58-1,9.39,9.39,0,0,0,3.59-2.94,14.76,14.76,0,0,0,2.36-5.06A28.56,28.56,0,0,0,741.93,760.88Z"/><path class="cls-1" d="M779.5,726.66a4.12,4.12,0,0,1-2.83,1.08,4,4,0,0,1-2.54-1,3.18,3.18,0,0,1-1.18-2.66,2.87,2.87,0,0,1,.39-1.48c.26-.45.55-.93.87-1.43l10.42-15.52a14.63,14.63,0,0,1,2.49-2.89,4.47,4.47,0,0,1,3-1.15,6.52,6.52,0,0,1,2.52.53,8.86,8.86,0,0,1,2.3,1.46,7.26,7.26,0,0,1,1.7,2.18,5.81,5.81,0,0,1,.66,2.72,6.16,6.16,0,0,1-2.41,4.53ZM777,741.91a9.07,9.07,0,0,1,.68-3.58,7.9,7.9,0,0,1,1.84-2.67,7.71,7.71,0,0,1,2.67-1.64,9.14,9.14,0,0,1,3.25-.57q8.33,0,8.33,11.59v31.47a21.58,21.58,0,0,1-.45,4.52,11.17,11.17,0,0,1-1.44,3.67,7.08,7.08,0,0,1-2.62,2.45,8.09,8.09,0,0,1-3.93.89q-4.24,0-6.28-2.88t-2-8.65Z"/><path class="cls-1" d="M844.36,752.58c0-3-.78-5.15-2.33-6.41a9.66,9.66,0,0,0-6.26-1.89,33.64,33.64,0,0,0-4.4.27c-1.36.18-2.65.41-3.85.67s-2.35.55-3.43.84l-3.09.81a8.68,8.68,0,0,1-2.15.32,4.72,4.72,0,0,1-3.12-1.16,4,4,0,0,1-1.39-3.2,6.28,6.28,0,0,1,1-3.51,9.12,9.12,0,0,1,2.7-2.61,16.19,16.19,0,0,1,4-1.83,34.2,34.2,0,0,1,4.74-1.16c1.66-.29,3.36-.49,5.11-.62s3.42-.19,5-.19a34.68,34.68,0,0,1,9.22,1.16,17.77,17.77,0,0,1,7.2,3.85A18.16,18.16,0,0,1,858,745a29.78,29.78,0,0,1,1.7,10.73v21.55a30.94,30.94,0,0,1-.26,4,10.57,10.57,0,0,1-1.05,3.45,6,6,0,0,1-2.25,2.4,7.45,7.45,0,0,1-3.88.89,6.37,6.37,0,0,1-5.58-2.56c-1.2-1.71-1.81-4.14-1.81-7.3a17.94,17.94,0,0,1-7.64,8,20.86,20.86,0,0,1-5,1.89,23.6,23.6,0,0,1-5.37.62,20.35,20.35,0,0,1-6.81-1.11,16.35,16.35,0,0,1-5.42-3.12,14.29,14.29,0,0,1-3.56-4.85,15.12,15.12,0,0,1-1.28-6.34,16.68,16.68,0,0,1,2-8.4,15.3,15.3,0,0,1,5.79-5.72,28.92,28.92,0,0,1,9.27-3.23,68.65,68.65,0,0,1,12.49-1h5Zm-.05,10.35c-2.38-.07-4.73,0-7.07.11a24.38,24.38,0,0,0-6.29,1.15,10.73,10.73,0,0,0-4.48,2.78,7,7,0,0,0-1.7,5,7.5,7.5,0,0,0,.63,3.12,7.3,7.3,0,0,0,1.75,2.43,7.71,7.71,0,0,0,2.67,1.56,10.37,10.37,0,0,0,3.43.54,10.89,10.89,0,0,0,4.43-.89,9.75,9.75,0,0,0,3.49-2.59,12.48,12.48,0,0,0,2.3-4.15,17.32,17.32,0,0,0,.84-5.63Z"/><path class="cls-1" d="M935.38,787.34l-17.08-41c-.39-.9-.75-1.82-1.08-2.78a8.24,8.24,0,0,1-.49-2.72,7,7,0,0,1,.57-2.85,6.68,6.68,0,0,1,1.57-2.21,7.3,7.3,0,0,1,2.31-1.43,7.69,7.69,0,0,1,2.83-.51,5.65,5.65,0,0,1,3,.83,9.66,9.66,0,0,1,2.49,2.24,16.19,16.19,0,0,1,2,3.18c.58,1.18,1.09,2.39,1.55,3.61l10.06,28.13,10.37-28.29a16.05,16.05,0,0,1,2.3-4.53,15.86,15.86,0,0,1,3-3.12,3.85,3.85,0,0,1,1.7-1.54,5.2,5.2,0,0,1,2.18-.46,5.76,5.76,0,0,1,2.56.59,7.13,7.13,0,0,1,2.13,1.62,7.93,7.93,0,0,1,1.44,2.32,7.27,7.27,0,0,1,.52,2.69,9,9,0,0,1-.63,3.1l-1.2,3.21-21,54.86c-.45,1.18-1,2.31-1.49,3.39a15.27,15.27,0,0,1-1.84,2.86,9,9,0,0,1-2.27,2,5.44,5.44,0,0,1-2.83.75,8.88,8.88,0,0,1-3.07-.53,7.16,7.16,0,0,1-2.51-1.57,7.59,7.59,0,0,1-1.71-2.42,7.88,7.88,0,0,1-.62-3.18,11.08,11.08,0,0,1,.73-3.42c.45-1.24.87-2.42,1.26-3.53Z"/><path class="cls-1" d="M1057.09,752.58c0-3-.78-5.15-2.33-6.41a9.66,9.66,0,0,0-6.26-1.89,33.53,33.53,0,0,0-4.4.27c-1.37.18-2.65.41-3.85.67s-2.35.55-3.44.84l-3.09.81a8.61,8.61,0,0,1-2.14.32,4.69,4.69,0,0,1-3.12-1.16,3.93,3.93,0,0,1-1.39-3.2,6.2,6.2,0,0,1,1-3.51,9.2,9.2,0,0,1,2.69-2.61,16.44,16.44,0,0,1,4-1.83,34.2,34.2,0,0,1,4.74-1.16c1.66-.29,3.36-.49,5.11-.62s3.42-.19,5-.19a34.68,34.68,0,0,1,9.22,1.16,17.77,17.77,0,0,1,7.2,3.85,18,18,0,0,1,4.71,7.06,29.55,29.55,0,0,1,1.71,10.73v21.55a29.26,29.26,0,0,1-.27,4,10.33,10.33,0,0,1-1,3.45,6,6,0,0,1-2.26,2.4,7.42,7.42,0,0,1-3.87.89,6.35,6.35,0,0,1-5.58-2.56q-1.82-2.57-1.81-7.3a18.3,18.3,0,0,1-3.33,4.74,17.92,17.92,0,0,1-4.32,3.26,20.79,20.79,0,0,1-5,1.89,23.6,23.6,0,0,1-5.37.62,20.35,20.35,0,0,1-6.81-1.11,16.25,16.25,0,0,1-5.42-3.12,14.29,14.29,0,0,1-3.56-4.85,15.12,15.12,0,0,1-1.29-6.34,16.78,16.78,0,0,1,2-8.4,15.44,15.44,0,0,1,5.79-5.72,28.92,28.92,0,0,1,9.27-3.23,68.76,68.76,0,0,1,12.5-1h5Zm-.06,10.35c-2.37-.07-4.73,0-7.07.11a24.3,24.3,0,0,0-6.28,1.15,10.66,10.66,0,0,0-4.48,2.78,7,7,0,0,0-1.7,5,7.49,7.49,0,0,0,.62,3.12,7.33,7.33,0,0,0,1.76,2.43,7.71,7.71,0,0,0,2.67,1.56,10.33,10.33,0,0,0,3.43.54,10.92,10.92,0,0,0,4.43-.89,9.8,9.8,0,0,0,3.48-2.59,12.32,12.32,0,0,0,2.31-4.15,17.6,17.6,0,0,0,.83-5.63Z"/><path class="cls-1" d="M1109.43,714.64a6.14,6.14,0,0,1-.79,3.15,7.27,7.27,0,0,1-2,2.3,8.88,8.88,0,0,1-2.91,1.37,12.34,12.34,0,0,1-3.37.46,12.07,12.07,0,0,1-3.49-.49,9,9,0,0,1-2.91-1.43,7.05,7.05,0,0,1-2-2.29,6.28,6.28,0,0,1-.73-3.07,6,6,0,0,1,.71-2.88,7.47,7.47,0,0,1,1.91-2.29,8.76,8.76,0,0,1,2.88-1.51,11.92,11.92,0,0,1,3.67-.54,11.71,11.71,0,0,1,3.38.49,9.2,9.2,0,0,1,2.9,1.4,7.05,7.05,0,0,1,2,2.26A6.11,6.11,0,0,1,1109.43,714.64Zm-.79,62.78q0,5.13-2,7.87c-1.35,1.83-3.57,2.75-6.68,2.75-2.94,0-5-.92-6.21-2.75s-1.81-4.45-1.81-7.87v-33c0-3.41.61-6,1.81-7.86s3.27-2.75,6.21-2.75c3.11,0,5.33.91,6.68,2.75s2,4.45,2,7.86Z"/><path class="cls-1" d="M1144.85,777.42q0,5.13-2,7.87c-1.35,1.83-3.57,2.75-6.68,2.75q-4.41,0-6.21-2.75c-1.2-1.83-1.81-4.45-1.81-7.87V741.86a8.24,8.24,0,0,1,.71-3.51,6.9,6.9,0,0,1,1.89-2.47,8.75,8.75,0,0,1,2.69-1.51,9.52,9.52,0,0,1,3.2-.54,7.29,7.29,0,0,1,6.15,2.69c1.38,1.8,2.07,4.47,2.07,8a14.27,14.27,0,0,1,4.3-8.54,12.47,12.47,0,0,1,8.75-3.1,6.92,6.92,0,0,1,2.88.57,6.18,6.18,0,0,1,2.09,1.48,6.07,6.07,0,0,1,1.26,2.1,7.05,7.05,0,0,1,.42,2.37,5.8,5.8,0,0,1-2.33,5.09,12.14,12.14,0,0,1-6.26,1.92,18.69,18.69,0,0,0-4.38.91,9.87,9.87,0,0,0-3.5,2.08,9.33,9.33,0,0,0-2.36,3.53,14.12,14.12,0,0,0-.87,5.28Z"/><path class="cls-1" d="M1229.94,759.15a3.85,3.85,0,0,1-1.42,3.29,6.33,6.33,0,0,1-3.93,1.08h-32.42q.25,6.53,3.64,10.1t10.29,3.59a28,28,0,0,0,4.22-.3,35.06,35.06,0,0,0,3.85-.81c1.26-.34,2.51-.72,3.77-1.16l3.93-1.34a3.29,3.29,0,0,1,4,1.1,5.15,5.15,0,0,1,1.05,3.21,5.64,5.64,0,0,1-.37,2.05,9.61,9.61,0,0,1-3.45,4.28,20.08,20.08,0,0,1-5.56,2.69,33.35,33.35,0,0,1-6.65,1.38,63.3,63.3,0,0,1-6.7.38,34.71,34.71,0,0,1-11.24-1.78,25.4,25.4,0,0,1-9-5.28,24.27,24.27,0,0,1-6-8.79,31.94,31.94,0,0,1-2.17-12.23,28.17,28.17,0,0,1,2.1-10.89,26.42,26.42,0,0,1,5.84-8.78,27.33,27.33,0,0,1,8.9-5.87,29.08,29.08,0,0,1,11.34-2.16,28.78,28.78,0,0,1,11.58,2.13,22.9,22.9,0,0,1,8.07,5.71,23.26,23.26,0,0,1,4.76,8.35A33.06,33.06,0,0,1,1229.94,759.15Zm-14-3.28a19.8,19.8,0,0,0-1-5.28,12.87,12.87,0,0,0-2.3-4.21,10.4,10.4,0,0,0-3.67-2.77,11.92,11.92,0,0,0-5-1,10.59,10.59,0,0,0-4.75,1,11.43,11.43,0,0,0-3.66,2.86,13.18,13.18,0,0,0-2.41,4.2,17.91,17.91,0,0,0-1,5.15Z"/><path class="cls-1" d="M1305.18,777.42q0,5.13-2,7.87c-1.35,1.83-3.57,2.75-6.68,2.75-2.94,0-5-.92-6.21-2.75s-1.81-4.45-1.81-7.87v-57c0-3.41.61-6,1.81-7.87s3.27-2.74,6.21-2.74c3.11,0,5.33.91,6.68,2.74s2,4.46,2,7.87Z"/><path class="cls-1" d="M1342.18,714.64a6.14,6.14,0,0,1-.79,3.15,7.27,7.27,0,0,1-2,2.3,8.88,8.88,0,0,1-2.91,1.37,12.36,12.36,0,0,1-3.38.46,12,12,0,0,1-3.48-.49,9,9,0,0,1-2.91-1.43,6.93,6.93,0,0,1-2-2.29,6.28,6.28,0,0,1-.73-3.07,5.91,5.91,0,0,1,.71-2.88,7.33,7.33,0,0,1,1.91-2.29,8.76,8.76,0,0,1,2.88-1.51,11.92,11.92,0,0,1,3.67-.54,11.71,11.71,0,0,1,3.38.49,9.3,9.3,0,0,1,2.9,1.4,7.05,7.05,0,0,1,2,2.26A6.11,6.11,0,0,1,1342.18,714.64Zm-.79,62.78q0,5.13-2,7.87c-1.35,1.83-3.57,2.75-6.68,2.75q-4.41,0-6.21-2.75c-1.2-1.83-1.81-4.45-1.81-7.87v-33c0-3.41.61-6,1.81-7.86s3.27-2.75,6.21-2.75c3.11,0,5.33.91,6.68,2.75s2,4.45,2,7.86Z"/><path class="cls-1" d="M1361.1,744.44q0-5.12,1.81-7.86c1.2-1.84,3.27-2.75,6.21-2.75,3.1,0,5.33.91,6.67,2.75s2,4.45,2,7.86a17.22,17.22,0,0,1,2.86-4.71,18.67,18.67,0,0,1,4.14-3.64,19.55,19.55,0,0,1,5-2.34,19.1,19.1,0,0,1,5.66-.84,20,20,0,0,1,5.37.73,15.85,15.85,0,0,1,4.92,2.32,16.42,16.42,0,0,1,4,4,18.59,18.59,0,0,1,2.67,5.82,23.82,23.82,0,0,1,3.82-6.09,20.1,20.1,0,0,1,4.77-4,19.06,19.06,0,0,1,5.37-2.15,25.08,25.08,0,0,1,5.63-.65,16.87,16.87,0,0,1,6.42,1.24,15.13,15.13,0,0,1,5.4,3.75,18.35,18.35,0,0,1,3.71,6.3,25.69,25.69,0,0,1,1.39,8.87v24.35q0,5.13-2,7.87c-1.35,1.83-3.57,2.75-6.68,2.75q-4.41,0-6.21-2.75t-1.81-7.87v-23.6a13.86,13.86,0,0,0-.63-4.34,9.53,9.53,0,0,0-1.75-3.23,7.36,7.36,0,0,0-2.65-2,8,8,0,0,0-3.25-.67,12.06,12.06,0,0,0-4.08.7,9.07,9.07,0,0,0-3.38,2.16,10.45,10.45,0,0,0-2.3,3.72,15.14,15.14,0,0,0-.87,5.44v21.82q0,5.13-2,7.87c-1.34,1.83-3.57,2.75-6.67,2.75q-4.41,0-6.21-2.75t-1.81-7.87V754.84q0-5.55-2.23-8.4a7.24,7.24,0,0,0-6-2.86,11.51,11.51,0,0,0-4.19.75,9.55,9.55,0,0,0-3.35,2.21,10.51,10.51,0,0,0-2.23,3.62,14,14,0,0,0-.81,5v22.31q0,5.13-2,7.87c-1.34,1.83-3.57,2.75-6.67,2.75q-4.41,0-6.21-2.75t-1.81-7.87Z"/><path class="cls-1" d="M1485.16,744.44a18.38,18.38,0,0,1,3.35-5,20.93,20.93,0,0,1,4.51-3.61,20.46,20.46,0,0,1,5.16-2.18,20.25,20.25,0,0,1,5.37-.73,17.25,17.25,0,0,1,8.69,2.21,20.84,20.84,0,0,1,6.63,6,28.44,28.44,0,0,1,4.22,8.94,40.42,40.42,0,0,1,1.46,11,38.11,38.11,0,0,1-1.54,11.16,26.9,26.9,0,0,1-4.35,8.7,20.38,20.38,0,0,1-6.71,5.69,18.42,18.42,0,0,1-8.67,2.05,19.73,19.73,0,0,1-10.47-2.81,22.45,22.45,0,0,1-7.65-7.86v19.4q0,5.12-2,7.86c-1.34,1.84-3.57,2.75-6.68,2.75-2.93,0-5-.91-6.2-2.75s-1.81-4.45-1.81-7.86v-53q0-5.12,1.81-7.86c1.2-1.84,3.27-2.75,6.2-2.75,3.11,0,5.34.91,6.68,2.75S1485.16,741,1485.16,744.44Zm0,16.33a38.64,38.64,0,0,0,.55,6.74,17.06,17.06,0,0,0,1.89,5.47,10,10,0,0,0,3.56,3.69,10.49,10.49,0,0,0,5.53,1.35,9.3,9.3,0,0,0,5.1-1.32,9.71,9.71,0,0,0,3.33-3.67,18.18,18.18,0,0,0,1.81-5.52,41.24,41.24,0,0,0,.55-6.9,45,45,0,0,0-.42-6.06,20.26,20.26,0,0,0-1.57-5.63,11,11,0,0,0-3.2-4.15,8.33,8.33,0,0,0-5.34-1.62,13,13,0,0,0-5.58,1.08,8.66,8.66,0,0,0-3.67,3.28,15.32,15.32,0,0,0-2,5.53A45,45,0,0,0,1485.21,760.77Z"/><path class="cls-1" d="M1559.19,714.64a6.14,6.14,0,0,1-.79,3.15,7.27,7.27,0,0,1-2,2.3,8.88,8.88,0,0,1-2.91,1.37,12.34,12.34,0,0,1-3.37.46,12.07,12.07,0,0,1-3.49-.49,9,9,0,0,1-2.91-1.43,7.05,7.05,0,0,1-2-2.29,6.28,6.28,0,0,1-.73-3.07,6,6,0,0,1,.71-2.88,7.47,7.47,0,0,1,1.91-2.29,8.76,8.76,0,0,1,2.88-1.51,11.92,11.92,0,0,1,3.67-.54,11.71,11.71,0,0,1,3.38.49,9.2,9.2,0,0,1,2.9,1.4,7.05,7.05,0,0,1,2,2.26A6.11,6.11,0,0,1,1559.19,714.64Zm-.79,62.78q0,5.13-2,7.87c-1.35,1.83-3.57,2.75-6.68,2.75-2.94,0-5-.92-6.21-2.75s-1.81-4.45-1.81-7.87v-33c0-3.41.61-6,1.81-7.86s3.27-2.75,6.21-2.75c3.11,0,5.33.91,6.68,2.75s2,4.45,2,7.86Z"/><path class="cls-1" d="M1575.49,760.88a32,32,0,0,1,1.81-10.81,24.72,24.72,0,0,1,5.45-8.91,26.12,26.12,0,0,1,9.11-6.09,33.5,33.5,0,0,1,12.86-2.27,34.4,34.4,0,0,1,12.52,2.11,25.68,25.68,0,0,1,9.17,5.84,24.91,24.91,0,0,1,5.66,8.89,31.7,31.7,0,0,1,1.94,11.24,31.13,31.13,0,0,1-1.84,10.7,24.6,24.6,0,0,1-5.5,8.83,26.14,26.14,0,0,1-9.17,6,33.73,33.73,0,0,1-12.78,2.24,34.75,34.75,0,0,1-12.65-2.13,25.72,25.72,0,0,1-9.16-5.88,24.16,24.16,0,0,1-5.56-8.83A31.79,31.79,0,0,1,1575.49,760.88Zm17.45,0a35,35,0,0,0,.63,6.76,18.18,18.18,0,0,0,2,5.63,11,11,0,0,0,3.64,3.86,10.09,10.09,0,0,0,5.5,1.42,10.26,10.26,0,0,0,5.22-1.29,10.44,10.44,0,0,0,3.66-3.61,17.91,17.91,0,0,0,2.18-5.58,33.33,33.33,0,0,0,.73-7.19,34.16,34.16,0,0,0-.65-6.76,18.87,18.87,0,0,0-2.07-5.66,11.14,11.14,0,0,0-3.64-3.88,9.9,9.9,0,0,0-5.43-1.43,10.12,10.12,0,0,0-5.44,1.4,10.8,10.8,0,0,0-3.67,3.83,17.71,17.71,0,0,0-2,5.66A35.64,35.64,0,0,0,1592.94,760.88Z"/><path class="cls-1" d="M1664.3,748.27a3.67,3.67,0,0,0,1.78,3.26,15.91,15.91,0,0,0,4.92,1.91c2,.47,4,.92,6.13,1.35s4.14.92,6.13,1.48a43.28,43.28,0,0,1,5.6,2,17.87,17.87,0,0,1,4.61,2.83,12.4,12.4,0,0,1,3.15,4.09,13.29,13.29,0,0,1,1.15,5.74,16.09,16.09,0,0,1-1.68,7.47,15.65,15.65,0,0,1-4.74,5.52,22.87,22.87,0,0,1-7.31,3.5,34.6,34.6,0,0,1-9.37,1.3,69.27,69.27,0,0,1-9.38-.62,37.91,37.91,0,0,1-8-1.92,17,17,0,0,1-5.58-3.2,5.94,5.94,0,0,1-2.09-4.5,4.44,4.44,0,0,1,1.41-3.51,5.33,5.33,0,0,1,3.62-1.23,7.34,7.34,0,0,1,2,.32c.77.21,1.6.48,2.51.81l2.91,1a33.65,33.65,0,0,0,3.22,1,37.63,37.63,0,0,0,4.32,1,30,30,0,0,0,4.59.35,13.94,13.94,0,0,0,2.88-.3,9,9,0,0,0,2.54-.92,5.84,5.84,0,0,0,1.86-1.58,4.78,4.78,0,0,0,.89-2.38,5.73,5.73,0,0,0,.26-.64,2.49,2.49,0,0,0,.11-.76,3.54,3.54,0,0,0-1.34-2.69,9.68,9.68,0,0,0-3.75-1.89c-2.69-.64-5.25-1.24-7.7-1.78s-4.7-1.11-6.78-1.72a40.37,40.37,0,0,1-5.66-2.1,15.28,15.28,0,0,1-4.29-2.91,12,12,0,0,1-2.73-4.15,16,16,0,0,1-1-5.88,13.36,13.36,0,0,1,1.65-6.65,14,14,0,0,1,4.74-4.93,24,24,0,0,1,7.5-3,43,43,0,0,1,9.95-1.05q9.95,0,15.16,2.45t5.22,6.39a4.12,4.12,0,0,1-1.42,3.37,5.21,5.21,0,0,1-3.4,1.16,6.45,6.45,0,0,1-2.18-.41c-.75-.27-1.65-.57-2.7-.91a29.67,29.67,0,0,0-3.74-.92,30,30,0,0,0-5.37-.4,41.29,41.29,0,0,0-4.37.21,13.69,13.69,0,0,0-3.36.76,5.1,5.1,0,0,0-2.14,1.45A3.5,3.5,0,0,0,1664.3,748.27Z"/><path class="cls-1" d="M285.27,595.78l.14.09a28.22,28.22,0,0,1,2.89,44.44c-31.05,27.37-74.18,41.35-120.36,32.92A140.11,140.11,0,0,1,55.48,560.9c-16.56-90.06,52.15-168.56,139.18-168.56a141.15,141.15,0,0,1,93.75,35.45,28.23,28.23,0,0,1-3,44.48h0a28.35,28.35,0,0,1-34.61-2A84.66,84.66,0,0,0,196.79,449c-48.74-1.19-88.71,39.16-87.08,87.88A85,85,0,0,0,250.62,598,28.34,28.34,0,0,1,285.27,595.78Z"/><path class="cls-1" d="M1038.93,595.78l.13.09a28.21,28.21,0,0,1,2.89,44.44c-31.05,27.37-74.17,41.35-120.35,32.92A140.11,140.11,0,0,1,809.13,560.9c-16.56-90.06,52.15-168.56,139.19-168.56a141.15,141.15,0,0,1,93.74,35.45,28.23,28.23,0,0,1-3,44.48h0a28.36,28.36,0,0,1-34.62-2,85,85,0,1,0-.22,127.77A28.35,28.35,0,0,1,1038.93,595.78Z"/><path class="cls-1" d="M392,448.67V506h56.34a28.33,28.33,0,0,1,28.33,28.33h0a28.33,28.33,0,0,1-28.33,28.33H392v56H505A28.33,28.33,0,0,1,533.32,647v.34A28.33,28.33,0,0,1,505,675.67H364.33A28.34,28.34,0,0,1,336,647.34v-227A28.33,28.33,0,0,1,364.33,392H505a28.33,28.33,0,0,1,28.33,28.33h0A28.33,28.33,0,0,1,505,448.67Z"/><path class="cls-1" d="M730,591.17l-3.77-2.67c24-7,43.94-27.17,54.38-54a120.83,120.83,0,0,0,0-86c-13.05-33.52-40.87-56.67-73.09-56.67H589.82a28,28,0,0,0-28,28V647.5a28,28,0,0,0,28,28h0a28,28,0,0,0,28-28V591.17H632l112.35,79.6a28,28,0,0,0,39-6.66l.38-.55a28,28,0,0,0-6.66-39ZM617.82,534.51v-86h86.83c15,0,27.17,19.25,27.17,43s-12.16,43-27.17,43Z"/><path class="cls-1" d="M1555,392.51c-1.42,0-2.84,0-4.25.07a142.74,142.74,0,0,0-.91-60,141.51,141.51,0,0,0-279.16,25.05c-.13,2.74-.21,5.33-.17,5.81,1.22,13.61,13.89,28.67,28.92,29.07a27.25,27.25,0,0,0,13.08-3.33c2.58-1.26,14.67-7.53,15-17.05a12.45,12.45,0,0,0-.19-2.51h0c0-.84-.09-1.69-.11-2.54s0-1.7,0-2.56h0c0-.34,0-.68,0-1s0-.86,0-1.29l0-1c0-.28,0-.56,0-.84,0-.44,0-.89.07-1.33s0-.72.08-1.08q.27-3.63.84-7.32a84.38,84.38,0,0,1,71-70.19c2.14-.31,4.27-.55,6.38-.7h.13l1-.07,1.13-.06,1-.05.93,0h2.39q3.58,0,7.09.29c.89.07,1.78.16,2.66.26a84,84,0,0,1,12.34,2.35c.88.23,1.75.48,2.62.75A83.59,83.59,0,0,1,1447,287l2.43,1.14q2.4,1.19,4.73,2.51a85,85,0,0,1,28.08,122A141.34,141.34,0,0,0,1413.47,534v.69a28.34,28.34,0,0,0,56.67-.26v-.6a85,85,0,1,1,93.66,84.56v.44H1289.29l-.12-.34L1269,562.84,1215.07,414l-.12-.35A31.64,31.64,0,0,0,1196,394.76l-3.42-1.24a21.42,21.42,0,0,0-14.6,0l-3.08,1.12a32.33,32.33,0,0,0-19.4,19.4l-81,223.44a28.31,28.31,0,0,0,17,36.27A27.64,27.64,0,0,0,1127,657.16l14-38.66h88.64q8.43,21.68,16.87,43.34a25.94,25.94,0,0,0,5.66,7,27.35,27.35,0,0,0,7,4.33,33.83,33.83,0,0,0,9.17,2.67l269.78-1.34a145.54,145.54,0,0,0,43.76-1.48,140.1,140.1,0,0,0,112.43-113.75C1709.72,470,1641.39,392.51,1555,392.51ZM1161.14,562.84l24.15-66.62,24.14,66.62Z"/><polygon class="cls-1" points="1249.48 673.33 1249.9 674.5 1249.48 674.5 1249.48 673.33"/><path class="cls-1" d="M1810.13,540.51a264.52,264.52,0,0,1-30.47,123.66,27.77,27.77,0,0,1-40.73,9.54l-1.72-1.23a27.75,27.75,0,0,1-8.48-35.4,208.14,208.14,0,0,0-114.29-292.51,27.84,27.84,0,0,1-17.74-32.17l.42-2a27.8,27.8,0,0,1,36.48-20.27C1736.48,326.8,1810.13,425.05,1810.13,540.51Z"/><rect class="cls-1" x="1865.8" y="506.17" width="227.66" height="56.67" rx="28.33" ry="28.33"/><rect class="cls-1" x="1828.8" y="333.18" width="227.66" height="56.67" rx="28.33" ry="28.33" transform="translate(26.42 843.84) rotate(-24.67)"/><rect class="cls-1" x="1725.8" y="189.51" width="227.66" height="56.67" rx="28.33" ry="28.33" transform="translate(444.96 1437.11) rotate(-47.91)"/><rect class="cls-1" x="1572.14" y="101.18" width="227.66" height="56.67" rx="28.33" ry="28.33" transform="translate(1062.13 1701.16) rotate(-72.74)"/></svg>