<?xml version="1.0" standalone="no"?>
<!DOCTYPE svg PUBLIC "-//W3C//DTD SVG 20010904//EN"
 "http://www.w3.org/TR/2001/REC-SVG-20010904/DTD/svg10.dtd">
<svg version="1.0" xmlns="http://www.w3.org/2000/svg"
 width="40.000000pt" height="40.000000pt" viewBox="0 0 436.000000 431.000000"
 preserveAspectRatio="xMidYMid meet">

<g transform="translate(0.000000,431.000000) scale(0.100000,-0.100000)"
 stroke="none">
<path d="m 1925 4224 c-258 -44 -417 -95 -624 -199 -601 -301 -1014 -875 -1116
-1551 -22 -146 -20 -436 5 -602 10 -73 22 -137 26 -143 3 -5 19 -59 34 -118
59 -223 201 -503 356 -698 99 -125 237 -261 359 -353 243 -184 468 -294 745
-364 199 -51 316 -66 515 -66 329 0 628 71 925 220 537 270 937 769 1075 1344
84 349 84 643 0 992 -155 647 -652 1202 -1280 1432 -340 124 -697 161 -1020
106z m574 -648 c29 -15 51 -53 51 -88 0 -12 -45 -162 -101 -333 -85 -263 -105
-314 -130 -337 -64 -60 -169 -13 -169 74 0 13 34 129 76 258 42 129 87 270
100 312 36 114 96 154 173 114z m690 -405 c34 -32 42 -82 19 -124 -16 -31
-436 -495 -458 -507 -42 -22 -118 -1 -140 39 -13 26 -13 77 1 104 15 28 445
504 462 510 37 15 86 6 116 -22z m-1679 -345 c87 -31 136 -61 201 -126 110
-110 164 -244 157 -394 l-3 -74 57 -7 c366 -41 571 -419 408 -751 -66 -135
-205 -241 -358 -273 -34 -7 -232 -11 -563 -11 l-511 0 -34 34 c-45 45 -47 92
-5 138 l29 33 529 5 c518 5 529 5 575 27 118 55 181 154 181 283 0 96 -28 164
-90 221 -68 62 -123 83 -218 83 -95 0 -150 -21 -208 -80 -53 -53 -73 -97 -90
-193 -16 -91 -38 -125 -89 -135 -76 -15 -135 55 -123 147 19 157 61 236 190
363 108 107 115 119 115 215 0 112 -80 234 -183 280 -39 18 -70 23 -127 23
-94 0 -163 -28 -221 -91 -52 -56 -77 -114 -86 -195 -5 -50 -12 -68 -34 -90
-55 -55 -156 -27 -175 48 -12 47 14 172 52 251 66 138 210 252 355 283 61 13
215 5 269 -14z m712 -251 c206 -84 407 -277 500 -482 110 -243 105 -547 -12
-789 -29 -60 -49 -88 -70 -99 -46 -24 -87 -19 -120 14 -46 46 -47 72 -7 159
66 145 72 172 71 337 0 135 -3 157 -26 223 -74 207 -231 367 -442 452 -82 33
-116 93 -85 153 32 62 93 72 191 32z m1409 -15 c23 -13 49 -61 49 -92 0 -13
-8 -37 -19 -53 -15 -26 -64 -51 -330 -169 -267 -118 -317 -137 -346 -132 -45
9 -85 57 -85 102 0 63 31 83 345 224 292 130 339 145 386 120z m174 -774 c47
-47 44 -121 -8 -160 -28 -20 -38 -21 -379 -21 l-350 0 -29 33 c-41 45 -41 102
0 143 l29 29 357 0 356 0 24 -24z"/>
</g>
</svg>
