<svg id="Capa_1" data-name="Capa 1" xmlns="http://www.w3.org/2000/svg" viewBox="0 0 1086.2 851.35"><defs><style>.cls-1{fill:#00ace5;}.cls-2{fill:#ffdc00;}</style></defs><title>Nube y sol colores originales</title><path class="cls-1" d="M633.66,559.27A140.1,140.1,0,0,1,521.23,673a145.54,145.54,0,0,1-43.76,1.48l-208.6,1a28.35,28.35,0,0,1-28.49-28.35h0a28.35,28.35,0,0,1,28.35-28.35H503.18v-.44a85,85,0,1,0-93.66-84.56v.6a28.34,28.34,0,0,1-56.67.26V534A141.57,141.57,0,0,1,421.6,412.63a85,85,0,0,0-28.08-122q-2.32-1.32-4.73-2.51L386.36,287a83.59,83.59,0,0,0-10.13-3.79c-.87-.27-1.74-.52-2.62-.75a84,84,0,0,0-12.34-2.35c-.88-.1-1.77-.19-2.66-.26q-3.51-.29-7.09-.29h-2.39l-.93,0-1,.05-1.13.06-.95.07H345c-2.11.15-4.24.39-6.38.7a84.38,84.38,0,0,0-71,70.19q-.57,3.69-.84,7.32c0,.36-.06.72-.08,1.08s-.05.89-.07,1.33c0,.28,0,.56,0,.84l0,1c0,.43,0,.86,0,1.29s0,.69,0,1h0c0,.86,0,1.71,0,2.56s.06,1.7.11,2.54h0a12.45,12.45,0,0,1,.19,2.51c-.33,9.52-12.42,15.79-15,17.05a27.25,27.25,0,0,1-13.08,3.33c-15-.4-27.7-15.46-28.92-29.07,0-.48,0-3.07.17-5.81A141.5,141.5,0,1,1,490.1,392.58c1.41-.05,2.83-.07,4.25-.07C580.77,392.51,649.1,470,633.66,559.27Z"/><path class="cls-2" d="M749.51,540.51A264.52,264.52,0,0,1,719,664.17a27.77,27.77,0,0,1-40.73,9.54l-1.72-1.23a27.75,27.75,0,0,1-8.48-35.4A208.14,208.14,0,0,0,553.82,344.57a27.84,27.84,0,0,1-17.74-32.17l.42-2A27.8,27.8,0,0,1,573,290.17C675.86,326.8,749.51,425.05,749.51,540.51Z"/><rect class="cls-2" x="805.18" y="506.17" width="227.66" height="56.67" rx="28.33" ry="28.33"/><rect class="cls-2" x="768.18" y="333.18" width="227.66" height="56.67" rx="28.33" ry="28.33" transform="translate(-70.39 401.14) rotate(-24.67)"/><rect class="cls-2" x="665.18" y="189.51" width="227.66" height="56.67" rx="28.33" ry="28.33" transform="translate(95.21 649.98) rotate(-47.91)"/><rect class="cls-2" x="511.52" y="101.18" width="227.66" height="56.67" rx="28.33" ry="28.33" transform="translate(316.15 688.29) rotate(-72.74)"/></svg>